<svg width="340" height="25" viewBox="0 0 340 25" fill="none" xmlns="http://www.w3.org/2000/svg">
<line y1="12.65" x2="340" y2="12.65" stroke="#E6E6E6" stroke-width="0.7"/>
<rect x="110.35" y="0.35" width="119.3" height="24.3" rx="6.65" fill="white" stroke="#E6E6E6" stroke-width="0.7"/>
<path d="M140.7 8.64H139.89V14.47H140.6C141.97 14.47 143.34 14.37 144.87 14.06L144.77 13.38C143.32 13.67 141.99 13.78 140.7 13.78V8.64ZM147.87 11.35H146.43V7.77H145.61V16.74H146.43V12.03H147.87V11.35ZM151.639 8.43C150.249 8.43 149.239 9.28 149.239 10.54C149.239 11.79 150.249 12.65 151.639 12.65C153.039 12.65 154.039 11.79 154.039 10.54C154.039 9.28 153.039 8.43 151.639 8.43ZM151.639 9.13C152.569 9.13 153.239 9.7 153.239 10.54C153.239 11.37 152.569 11.95 151.639 11.95C150.719 11.95 150.039 11.37 150.039 10.54C150.039 9.7 150.719 9.13 151.639 9.13ZM155.219 7.77V16.76H156.039V7.77H155.219ZM148.889 14.79C150.509 14.79 152.679 14.77 154.699 14.4L154.629 13.79C152.669 14.09 150.419 14.1 148.789 14.1L148.889 14.79ZM165.819 11.99C164.489 11.53 163.569 10.36 163.569 9.07V8.19H162.749V9.07C162.749 10.41 161.839 11.66 160.489 12.15L160.909 12.8C161.959 12.4 162.779 11.57 163.169 10.51C163.569 11.5 164.379 12.27 165.409 12.64L165.819 11.99ZM161.769 14.29H166.949V16.75H167.769V13.63H161.769V14.29ZM166.949 7.78V13.17H167.769V7.78H166.949ZM174.798 11.7C173.628 11.93 172.608 12 170.838 12V9.21H173.988V8.55H170.018V12.67H170.718C172.598 12.67 173.658 12.61 174.888 12.36L174.798 11.7ZM171.808 13.61H170.988V16.54H176.968V15.87H171.808V13.61ZM176.568 10.43V7.77H175.748V14.26H176.568V11.11H177.898V10.43H176.568ZM188.648 7.77H187.828V12.37H188.648V7.77ZM182.288 10.09C182.288 9.31 182.938 8.76 183.808 8.76C184.688 8.76 185.328 9.31 185.328 10.09C185.328 10.86 184.688 11.41 183.808 11.41C182.938 11.41 182.288 10.86 182.288 10.09ZM186.128 10.09C186.128 8.9 185.148 8.09 183.808 8.09C182.468 8.09 181.498 8.9 181.498 10.09C181.498 11.27 182.468 12.07 183.808 12.07C185.148 12.07 186.128 11.27 186.128 10.09ZM183.668 15.97V14.98H188.648V12.81H182.838V13.46H187.838V14.37H182.858V16.62H188.948V15.97H183.668ZM195.277 10.1V10.77H197.047V13.12H197.877V7.78H197.047V10.1H195.277ZM195.777 12.14C194.477 11.68 193.597 10.55 193.597 9.4V9.09H195.567V8.43H190.777V9.09H192.777V9.4C192.777 10.69 191.857 11.9 190.517 12.39L190.947 13.04C191.997 12.64 192.827 11.8 193.207 10.76C193.597 11.68 194.367 12.42 195.367 12.78L195.777 12.14ZM194.917 16.1C193.567 16.1 192.747 15.72 192.747 15.07C192.747 14.42 193.567 14.03 194.917 14.03C196.267 14.03 197.087 14.42 197.087 15.07C197.087 15.72 196.267 16.1 194.917 16.1ZM194.917 13.4C193.077 13.4 191.927 14.01 191.927 15.07C191.927 16.13 193.077 16.74 194.917 16.74C196.757 16.74 197.907 16.13 197.907 15.07C197.907 14.01 196.757 13.4 194.917 13.4Z" fill="#CCCCCC"/>
</svg>
