<svg width="340" height="25" viewBox="0 0 340 25" fill="none" xmlns="http://www.w3.org/2000/svg">
<line y1="12.65" x2="340" y2="12.65" stroke="#E6E6E6" stroke-width="0.7"/>
<rect x="110.35" y="0.35" width="119.3" height="24.3" rx="6.65" fill="white" stroke="#E6E6E6" stroke-width="0.7"/>
<path d="M148.51 13.83H146.63V11.46H148.51V13.83ZM148.51 10.81H146.63V8.62H145.85V14.49H149.28V8.62H148.51V10.81ZM152.37 7.77V11.32H151.16V7.97H150.39V16.3H151.16V11.99H152.37V16.74H153.15V7.77H152.37ZM162.349 10.72C160.749 10.5 159.199 9.5 159.199 8.31V7.91H158.359V8.31C158.359 9.5 156.819 10.5 155.219 10.72L155.529 11.37C156.899 11.14 158.219 10.43 158.779 9.41C159.349 10.43 160.669 11.14 162.039 11.37L162.349 10.72ZM158.779 16.1C157.359 16.1 156.539 15.77 156.539 15.18C156.539 14.59 157.359 14.26 158.779 14.26C160.199 14.26 161.019 14.59 161.019 15.18C161.019 15.77 160.199 16.1 158.779 16.1ZM158.779 13.63C156.859 13.63 155.709 14.18 155.709 15.18C155.709 16.18 156.859 16.73 158.779 16.73C160.699 16.73 161.849 16.18 161.849 15.18C161.849 14.18 160.699 13.63 158.779 13.63ZM159.189 12.22V10.9H158.369V12.22H154.729V12.88H162.839V12.22H159.189ZM167.128 9.37H169.238V8.69H164.228V9.37H166.308V10.51C166.308 12.06 165.218 13.75 163.928 14.36L164.408 15.02C165.428 14.5 166.308 13.37 166.718 12.06C167.148 13.29 168.028 14.32 169.068 14.8L169.528 14.14C168.208 13.58 167.128 12.03 167.128 10.51V9.37ZM170.448 7.78V16.74H171.268V7.78H170.448ZM180.398 10.1V10.77H182.168V13.12H182.998V7.78H182.168V10.1H180.398ZM180.898 12.14C179.598 11.68 178.718 10.55 178.718 9.4V9.09H180.688V8.43H175.898V9.09H177.898V9.4C177.898 10.69 176.978 11.9 175.638 12.39L176.068 13.04C177.118 12.64 177.948 11.8 178.328 10.76C178.718 11.68 179.488 12.42 180.488 12.78L180.898 12.14ZM180.038 16.1C178.688 16.1 177.868 15.72 177.868 15.07C177.868 14.42 178.688 14.03 180.038 14.03C181.388 14.03 182.208 14.42 182.208 15.07C182.208 15.72 181.388 16.1 180.038 16.1ZM180.038 13.4C178.198 13.4 177.048 14.01 177.048 15.07C177.048 16.13 178.198 16.74 180.038 16.74C181.878 16.74 183.028 16.13 183.028 15.07C183.028 14.01 181.878 13.4 180.038 13.4ZM186.577 10.68H191.157V12.33H186.577V10.68ZM189.277 14.92V12.99H191.957V8.41H191.157V10.01H186.577V8.41H185.767V12.99H188.447V14.92H184.807V15.59H192.937V14.92H189.277Z" fill="#CCCCCC"/>
</svg>
