<svg width="340" height="25" viewBox="0 0 340 25" fill="none" xmlns="http://www.w3.org/2000/svg">
<line y1="12.65" x2="340" y2="12.65" stroke="#E6E6E6" stroke-width="0.7"/>
<rect x="110.35" y="0.35" width="119.3" height="24.3" rx="6.65" fill="white" stroke="#E6E6E6" stroke-width="0.7"/>
<path d="M146.94 11.99C145.61 11.53 144.69 10.36 144.69 9.07V8.19H143.87V9.07C143.87 10.41 142.96 11.66 141.61 12.15L142.03 12.8C143.08 12.4 143.9 11.57 144.29 10.51C144.69 11.5 145.5 12.27 146.53 12.64L146.94 11.99ZM142.89 14.29H148.07V16.75H148.89V13.63H142.89V14.29ZM148.07 7.78V13.17H148.89V7.78H148.07ZM155.919 11.7C154.749 11.93 153.729 12 151.959 12V9.21H155.109V8.55H151.139V12.67H151.839C153.719 12.67 154.779 12.61 156.009 12.36L155.919 11.7ZM152.929 13.61H152.109V16.54H158.089V15.87H152.929V13.61ZM157.689 10.43V7.77H156.869V14.26H157.689V11.11H159.019V10.43H157.689ZM163.209 12.13C164.599 11.89 165.919 11.14 166.469 10.08C167.009 11.14 168.339 11.89 169.729 12.13L170.049 11.48C168.469 11.25 166.919 10.22 166.919 9.04V8.99H169.729V8.33H163.179V8.99H166.009V9.04C166.009 10.22 164.459 11.25 162.899 11.48L163.209 12.13ZM170.519 12.88H162.419V13.55H166.039V16.74H166.859V13.55H170.529L170.519 12.88ZM177.868 10.68H173.448V8.85H177.868V10.68ZM178.678 8.19H172.648V11.34H178.678V8.19ZM173.448 13.98H172.628V16.54H178.828V15.87H173.448V13.98ZM171.588 12.36V13.02H175.318V14.83H176.138V13.02H179.738V12.36H171.588ZM185.597 10.1V10.77H187.367V13.12H188.197V7.78H187.367V10.1H185.597ZM186.097 12.14C184.797 11.68 183.917 10.55 183.917 9.4V9.09H185.887V8.43H181.097V9.09H183.097V9.4C183.097 10.69 182.177 11.9 180.837 12.39L181.267 13.04C182.317 12.64 183.147 11.8 183.527 10.76C183.917 11.68 184.687 12.42 185.687 12.78L186.097 12.14ZM185.237 16.1C183.887 16.1 183.067 15.72 183.067 15.07C183.067 14.42 183.887 14.03 185.237 14.03C186.587 14.03 187.407 14.42 187.407 15.07C187.407 15.72 186.587 16.1 185.237 16.1ZM185.237 13.4C183.397 13.4 182.247 14.01 182.247 15.07C182.247 16.13 183.397 16.74 185.237 16.74C187.077 16.74 188.227 16.13 188.227 15.07C188.227 14.01 187.077 13.4 185.237 13.4ZM191.777 10.68H196.357V12.33H191.777V10.68ZM194.477 14.92V12.99H197.157V8.41H196.357V10.01H191.777V8.41H190.967V12.99H193.647V14.92H190.007V15.59H198.137V14.92H194.477Z" fill="#CCCCCC"/>
</svg>
