<svg width="224" height="10" viewBox="0 0 224 10" fill="none" xmlns="http://www.w3.org/2000/svg">
<rect width="20" height="10" rx="2" fill="#9A1111"/>
<path d="M8.5 4.168C8.656 3.598 8.656 3.13 8.656 2.692V2.236H4.828V2.86H7.864C7.864 3.226 7.846 3.598 7.72 4.09L8.5 4.168ZM6.724 6.922C5.98 6.922 5.554 6.772 5.554 6.478C5.554 6.178 5.98 6.028 6.724 6.028C7.474 6.028 7.9 6.178 7.9 6.478C7.9 6.772 7.474 6.922 6.724 6.922ZM6.724 5.434C5.536 5.434 4.768 5.83 4.768 6.478C4.768 7.12 5.536 7.516 6.724 7.516C7.918 7.516 8.686 7.12 8.686 6.478C8.686 5.83 7.918 5.434 6.724 5.434ZM6.904 4.462V3.496H6.112V4.462H4.27V5.086H9.244V4.462H6.904ZM12.5135 3.172H13.6535V2.518H10.5575V3.172H11.7095V3.478C11.7095 4.42 11.2595 5.434 10.3355 5.848L10.7855 6.478C11.4335 6.184 11.8775 5.578 12.1235 4.858C12.3695 5.524 12.8075 6.064 13.4495 6.34L13.8815 5.716C12.9575 5.332 12.5135 4.378 12.5135 3.478V3.172ZM14.1635 1.99V7.516H14.9555V1.99H14.1635Z" fill="white"/>
<path d="M26.8726 7.06348C26.6335 7.06348 26.4166 7.02327 26.2219 6.94287C26.0294 6.86035 25.8633 6.74504 25.7236 6.59692C25.5861 6.44881 25.4803 6.27319 25.4062 6.07007C25.3322 5.86694 25.2952 5.64478 25.2952 5.40356V5.27026C25.2952 4.99097 25.3364 4.74235 25.4189 4.52441C25.5015 4.30436 25.6136 4.11816 25.7554 3.96582C25.8971 3.81348 26.0579 3.69816 26.2378 3.61987C26.4176 3.54159 26.6038 3.50244 26.7964 3.50244C27.0418 3.50244 27.2534 3.54476 27.4312 3.62939C27.611 3.71403 27.7581 3.83252 27.8723 3.98486C27.9866 4.13509 28.0712 4.31283 28.1262 4.51807C28.1812 4.72119 28.2087 4.94336 28.2087 5.18457V5.448H25.6443V4.96875H27.6216V4.92432C27.6131 4.77197 27.5814 4.62386 27.5264 4.47998C27.4735 4.3361 27.3888 4.21761 27.2725 4.12451C27.1561 4.03141 26.9974 3.98486 26.7964 3.98486C26.6631 3.98486 26.5404 4.01343 26.4282 4.07056C26.3161 4.12557 26.2198 4.20809 26.1394 4.31812C26.059 4.42814 25.9966 4.5625 25.9521 4.72119C25.9077 4.87988 25.8855 5.06291 25.8855 5.27026V5.40356C25.8855 5.56649 25.9077 5.71989 25.9521 5.86377C25.9987 6.00553 26.0653 6.13037 26.1521 6.23828C26.241 6.34619 26.3478 6.43083 26.4727 6.49219C26.5996 6.55355 26.7435 6.58423 26.9043 6.58423C27.1117 6.58423 27.2873 6.54191 27.4312 6.45728C27.575 6.37264 27.7009 6.25944 27.8088 6.11768L28.1643 6.40015C28.0903 6.51229 27.9961 6.61914 27.8818 6.7207C27.7676 6.82227 27.6269 6.90479 27.4597 6.96826C27.2947 7.03174 27.099 7.06348 26.8726 7.06348ZM29.291 3.56592L30.0432 4.81641L30.8049 3.56592H31.4937L30.3701 5.26074L31.5286 7H30.8494L30.0559 5.71143L29.2625 7H28.5801L29.7354 5.26074L28.615 3.56592H29.291ZM32.1284 6.68896C32.1284 6.58952 32.1591 6.50594 32.2205 6.43823C32.2839 6.36841 32.3749 6.3335 32.4934 6.3335C32.6119 6.3335 32.7018 6.36841 32.7632 6.43823C32.8267 6.50594 32.8584 6.58952 32.8584 6.68896C32.8584 6.7863 32.8267 6.86882 32.7632 6.93652C32.7018 7.00423 32.6119 7.03809 32.4934 7.03809C32.3749 7.03809 32.2839 7.00423 32.2205 6.93652C32.1591 6.86882 32.1284 6.7863 32.1284 6.68896ZM36.1243 4.80054L35.6545 4.67993L35.8862 2.37891H38.2571V2.92163H36.3845L36.2449 4.17847C36.3295 4.1298 36.4364 4.08431 36.5654 4.04199C36.6966 3.99967 36.8468 3.97852 37.0161 3.97852C37.2298 3.97852 37.4213 4.01554 37.5906 4.0896C37.7598 4.16154 37.9037 4.26522 38.0222 4.40063C38.1428 4.53605 38.2349 4.69897 38.2983 4.8894C38.3618 5.07983 38.3936 5.29248 38.3936 5.52734C38.3936 5.74951 38.3629 5.95369 38.3015 6.13989C38.2423 6.32609 38.1523 6.48901 38.0317 6.62866C37.9111 6.76619 37.7588 6.87305 37.5747 6.94922C37.3927 7.02539 37.178 7.06348 36.9304 7.06348C36.7442 7.06348 36.5675 7.03809 36.4004 6.9873C36.2354 6.93441 36.0872 6.85506 35.9561 6.74927C35.827 6.64136 35.7212 6.50806 35.6387 6.34937C35.5583 6.18856 35.5075 6.00024 35.4863 5.78442H36.0449C36.0703 5.95793 36.1211 6.10392 36.1973 6.22241C36.2734 6.3409 36.3729 6.43083 36.4956 6.49219C36.6204 6.55143 36.7654 6.58105 36.9304 6.58105C37.0701 6.58105 37.1938 6.55672 37.3018 6.50806C37.4097 6.45939 37.5007 6.38957 37.5747 6.29858C37.6488 6.2076 37.7048 6.09757 37.7429 5.96851C37.7831 5.83944 37.8032 5.6945 37.8032 5.53369C37.8032 5.3877 37.7831 5.25228 37.7429 5.12744C37.7027 5.0026 37.6424 4.89364 37.562 4.80054C37.4837 4.70744 37.3875 4.6355 37.2732 4.58472C37.1589 4.53182 37.0278 4.50537 36.8796 4.50537C36.6829 4.50537 36.5337 4.53182 36.4321 4.58472C36.3327 4.63761 36.2301 4.70955 36.1243 4.80054ZM42.0793 4.426V4.777H43.2363V5.0825H43.7693V1.657H43.2363V4.426H42.0793ZM40.8638 2.138C41.4358 2.138 41.7998 2.333 41.7998 2.645C41.7998 2.944 41.4358 3.1455 40.8638 3.1455C40.2983 3.1455 39.9278 2.944 39.9278 2.645C39.9278 2.333 40.2983 2.138 40.8638 2.138ZM40.8638 3.5095C41.7283 3.5095 42.3003 3.178 42.3003 2.645C42.3003 2.099 41.7283 1.7675 40.8638 1.7675C39.9993 1.7675 39.4273 2.099 39.4273 2.645C39.4273 3.178 39.9993 3.5095 40.8638 3.5095ZM40.5648 5.102H41.0978V4.205C41.6633 4.1725 42.2418 4.127 42.8073 4.049L42.7748 3.698C41.5268 3.841 40.1033 3.8475 38.9788 3.8475L39.0438 4.2505C39.5118 4.2505 40.0253 4.244 40.5648 4.231V5.102ZM40.4023 7.0195V6.5125H43.7693V5.297H39.8628V5.6805H43.2493V6.1485H39.8758V7.416H43.9708V7.0195H40.4023ZM49.5305 4.32129V5.02588C49.5305 5.40462 49.4967 5.72412 49.429 5.98438C49.3612 6.24463 49.2639 6.4541 49.137 6.61279C49.01 6.77148 48.8566 6.8868 48.6768 6.95874C48.499 7.02856 48.298 7.06348 48.0737 7.06348C47.896 7.06348 47.732 7.04126 47.5818 6.99683C47.4316 6.95239 47.2961 6.88151 47.1755 6.78418C47.057 6.68473 46.9555 6.55566 46.8708 6.39697C46.7862 6.23828 46.7217 6.04574 46.6772 5.81934C46.6328 5.59294 46.6106 5.32845 46.6106 5.02588V4.32129C46.6106 3.94255 46.6444 3.62516 46.7122 3.36914C46.782 3.11312 46.8804 2.90788 47.0073 2.75342C47.1343 2.59684 47.2866 2.4847 47.4644 2.41699C47.6442 2.34928 47.8452 2.31543 48.0674 2.31543C48.2472 2.31543 48.4123 2.33765 48.5625 2.38208C48.7148 2.4244 48.8503 2.49316 48.9688 2.58838C49.0872 2.68148 49.1877 2.80632 49.2703 2.96289C49.3549 3.11735 49.4194 3.30672 49.4639 3.53101C49.5083 3.75529 49.5305 4.01872 49.5305 4.32129ZM48.9402 5.12109V4.2229C48.9402 4.01554 48.9275 3.83358 48.9021 3.677C48.8788 3.51831 48.8439 3.38289 48.7974 3.27075C48.7508 3.15861 48.6916 3.06763 48.6196 2.9978C48.5498 2.92798 48.4683 2.8772 48.3752 2.84546C48.2843 2.8116 48.1816 2.79468 48.0674 2.79468C47.9277 2.79468 47.804 2.82113 47.696 2.87402C47.5881 2.9248 47.4972 3.00627 47.4231 3.11841C47.3512 3.23055 47.2961 3.3776 47.2581 3.55957C47.22 3.74154 47.2009 3.96265 47.2009 4.2229V5.12109C47.2009 5.32845 47.2126 5.51147 47.2358 5.67017C47.2612 5.82886 47.2983 5.96639 47.3469 6.08276C47.3956 6.19702 47.4548 6.29118 47.5247 6.36523C47.5945 6.43929 47.6749 6.4943 47.7659 6.53027C47.859 6.56413 47.9616 6.58105 48.0737 6.58105C48.2176 6.58105 48.3435 6.55355 48.4514 6.49854C48.5593 6.44352 48.6493 6.35783 48.7212 6.24146C48.7952 6.12297 48.8503 5.97168 48.8862 5.7876C48.9222 5.6014 48.9402 5.37923 48.9402 5.12109ZM51.0286 4.80054L50.5588 4.67993L50.7905 2.37891H53.1614V2.92163H51.2888L51.1492 4.17847C51.2338 4.1298 51.3407 4.08431 51.4697 4.04199C51.6009 3.99967 51.7511 3.97852 51.9204 3.97852C52.1341 3.97852 52.3256 4.01554 52.4949 4.0896C52.6641 4.16154 52.808 4.26522 52.9265 4.40063C53.0471 4.53605 53.1392 4.69897 53.2026 4.8894C53.2661 5.07983 53.2979 5.29248 53.2979 5.52734C53.2979 5.74951 53.2672 5.95369 53.2058 6.13989C53.1466 6.32609 53.0566 6.48901 52.936 6.62866C52.8154 6.76619 52.6631 6.87305 52.479 6.94922C52.297 7.02539 52.0823 7.06348 51.8347 7.06348C51.6485 7.06348 51.4718 7.03809 51.3047 6.9873C51.1396 6.93441 50.9915 6.85506 50.8604 6.74927C50.7313 6.64136 50.6255 6.50806 50.543 6.34937C50.4626 6.18856 50.4118 6.00024 50.3906 5.78442H50.9492C50.9746 5.95793 51.0254 6.10392 51.1016 6.22241C51.1777 6.3409 51.2772 6.43083 51.3999 6.49219C51.5247 6.55143 51.6697 6.58105 51.8347 6.58105C51.9744 6.58105 52.0981 6.55672 52.2061 6.50806C52.314 6.45939 52.4049 6.38957 52.479 6.29858C52.5531 6.2076 52.6091 6.09757 52.6472 5.96851C52.6874 5.83944 52.7075 5.6945 52.7075 5.53369C52.7075 5.3877 52.6874 5.25228 52.6472 5.12744C52.607 5.0026 52.5467 4.89364 52.4663 4.80054C52.388 4.70744 52.2917 4.6355 52.1775 4.58472C52.0632 4.53182 51.932 4.50537 51.7839 4.50537C51.5872 4.50537 51.438 4.53182 51.3364 4.58472C51.237 4.63761 51.1344 4.70955 51.0286 4.80054ZM58.6866 1.6505H58.1536V4.6405H58.6866V1.6505ZM54.5526 3.1585C54.5526 2.6515 54.9751 2.294 55.5406 2.294C56.1126 2.294 56.5286 2.6515 56.5286 3.1585C56.5286 3.659 56.1126 4.0165 55.5406 4.0165C54.9751 4.0165 54.5526 3.659 54.5526 3.1585ZM57.0486 3.1585C57.0486 2.385 56.4116 1.8585 55.5406 1.8585C54.6696 1.8585 54.0391 2.385 54.0391 3.1585C54.0391 3.9255 54.6696 4.4455 55.5406 4.4455C56.4116 4.4455 57.0486 3.9255 57.0486 3.1585ZM55.4496 6.9805V6.337H58.6866V4.9265H54.9101V5.349H58.1601V5.9405H54.9231V7.403H58.8816V6.9805H55.4496ZM64.676 4.53394L65.1584 4.53076C65.1584 4.69368 65.1331 4.84709 65.0823 4.99097C65.0336 5.13485 64.9627 5.2618 64.8696 5.37183C64.7786 5.47974 64.6697 5.56543 64.5427 5.62891C64.4179 5.69027 64.2804 5.72095 64.1301 5.72095C63.946 5.72095 63.7831 5.68392 63.6414 5.60986C63.5017 5.53581 63.3494 5.42684 63.1843 5.28296C63.0764 5.18351 62.977 5.10628 62.886 5.05127C62.795 4.99626 62.6966 4.96875 62.5908 4.96875C62.4829 4.96875 62.3909 4.9952 62.3147 5.0481C62.2385 5.09888 62.1793 5.17188 62.137 5.26709C62.0968 5.3623 62.0767 5.47656 62.0767 5.60986L61.5657 5.61621C61.5657 5.45117 61.59 5.29777 61.6387 5.15601C61.6895 5.01424 61.7603 4.89046 61.8513 4.78467C61.9423 4.67887 62.0502 4.59741 62.175 4.54028C62.302 4.48104 62.4406 4.45142 62.5908 4.45142C62.777 4.45142 62.9421 4.49056 63.0859 4.56885C63.2319 4.64714 63.3822 4.75505 63.5366 4.89258C63.653 4.99837 63.7546 5.07772 63.8413 5.13062C63.9302 5.1814 64.0264 5.20679 64.1301 5.20679C64.2402 5.20679 64.3354 5.17822 64.4158 5.12109C64.4983 5.06396 64.5618 4.98462 64.6062 4.88306C64.6528 4.78149 64.676 4.66512 64.676 4.53394ZM70.4714 4.32129V5.02588C70.4714 5.40462 70.4376 5.72412 70.3699 5.98438C70.3022 6.24463 70.2048 6.4541 70.0779 6.61279C69.9509 6.77148 69.7975 6.8868 69.6177 6.95874C69.4399 7.02856 69.2389 7.06348 69.0146 7.06348C68.8369 7.06348 68.6729 7.04126 68.5227 6.99683C68.3725 6.95239 68.2371 6.88151 68.1165 6.78418C67.998 6.68473 67.8964 6.55566 67.8118 6.39697C67.7271 6.23828 67.6626 6.04574 67.6182 5.81934C67.5737 5.59294 67.5515 5.32845 67.5515 5.02588V4.32129C67.5515 3.94255 67.5854 3.62516 67.6531 3.36914C67.7229 3.11312 67.8213 2.90788 67.9482 2.75342C68.0752 2.59684 68.2275 2.4847 68.4053 2.41699C68.5851 2.34928 68.7861 2.31543 69.0083 2.31543C69.1882 2.31543 69.3532 2.33765 69.5034 2.38208C69.6558 2.4244 69.7912 2.49316 69.9097 2.58838C70.0282 2.68148 70.1287 2.80632 70.2112 2.96289C70.2958 3.11735 70.3604 3.30672 70.4048 3.53101C70.4492 3.75529 70.4714 4.01872 70.4714 4.32129ZM69.8811 5.12109V4.2229C69.8811 4.01554 69.8684 3.83358 69.843 3.677C69.8197 3.51831 69.7848 3.38289 69.7383 3.27075C69.6917 3.15861 69.6325 3.06763 69.5605 2.9978C69.4907 2.92798 69.4093 2.8772 69.3162 2.84546C69.2252 2.8116 69.1226 2.79468 69.0083 2.79468C68.8687 2.79468 68.7449 2.82113 68.637 2.87402C68.5291 2.9248 68.4381 3.00627 68.364 3.11841C68.2921 3.23055 68.2371 3.3776 68.199 3.55957C68.1609 3.74154 68.1418 3.96265 68.1418 4.2229V5.12109C68.1418 5.32845 68.1535 5.51147 68.1768 5.67017C68.2021 5.82886 68.2392 5.96639 68.2878 6.08276C68.3365 6.19702 68.3958 6.29118 68.4656 6.36523C68.5354 6.43929 68.6158 6.4943 68.7068 6.53027C68.7999 6.56413 68.9025 6.58105 69.0146 6.58105C69.1585 6.58105 69.2844 6.55355 69.3923 6.49854C69.5002 6.44352 69.5902 6.35783 69.6621 6.24146C69.7362 6.12297 69.7912 5.97168 69.8271 5.7876C69.8631 5.6014 69.8811 5.37923 69.8811 5.12109ZM73.4802 2.37256H73.531V2.87085H73.4802C73.1692 2.87085 72.9089 2.92163 72.6995 3.02319C72.49 3.12264 72.3239 3.257 72.2012 3.42627C72.0785 3.59342 71.9896 3.78174 71.9346 3.99121C71.8817 4.20068 71.8552 4.41333 71.8552 4.62915V5.30835C71.8552 5.51359 71.8796 5.69556 71.9282 5.85425C71.9769 6.01082 72.0435 6.14307 72.1282 6.25098C72.2128 6.35889 72.308 6.44035 72.4138 6.49536C72.5217 6.55037 72.6339 6.57788 72.7502 6.57788C72.8857 6.57788 73.0063 6.55249 73.1121 6.50171C73.2179 6.44881 73.3067 6.37581 73.3787 6.28271C73.4527 6.1875 73.5088 6.07536 73.5469 5.94629C73.585 5.81722 73.604 5.67546 73.604 5.521C73.604 5.38346 73.5871 5.25122 73.5532 5.12427C73.5194 4.9952 73.4675 4.88094 73.3977 4.78149C73.3279 4.67993 73.2401 4.60059 73.1343 4.54346C73.0306 4.48421 72.9068 4.45459 72.7629 4.45459C72.6 4.45459 72.4477 4.49479 72.3059 4.5752C72.1663 4.65348 72.0509 4.75716 71.96 4.88623C71.8711 5.01318 71.8203 5.15177 71.8076 5.302L71.4966 5.29883C71.5262 5.06185 71.5812 4.85978 71.6616 4.69263C71.7441 4.52336 71.8457 4.38582 71.9663 4.28003C72.089 4.17212 72.2255 4.09383 72.3757 4.04517C72.5281 3.99438 72.6889 3.96899 72.8582 3.96899C73.0888 3.96899 73.2877 4.01237 73.4548 4.09912C73.622 4.18587 73.7595 4.30225 73.8674 4.44824C73.9753 4.59212 74.0547 4.75505 74.1055 4.93701C74.1584 5.11686 74.1848 5.302 74.1848 5.49243C74.1848 5.71037 74.1541 5.91455 74.0928 6.10498C74.0314 6.29541 73.9394 6.46257 73.8167 6.60645C73.696 6.75033 73.5469 6.86247 73.3691 6.94287C73.1914 7.02327 72.9851 7.06348 72.7502 7.06348C72.5006 7.06348 72.2826 7.0127 72.0964 6.91113C71.9102 6.80745 71.7558 6.66992 71.6331 6.49854C71.5103 6.32715 71.4183 6.13672 71.3569 5.92725C71.2956 5.71777 71.2649 5.50513 71.2649 5.28931V5.01318C71.2649 4.68734 71.2977 4.36784 71.3633 4.05469C71.4289 3.74154 71.5421 3.45801 71.7029 3.2041C71.8658 2.9502 72.0911 2.74813 72.3789 2.5979C72.6667 2.44767 73.0338 2.37256 73.4802 2.37256ZM79.6275 1.6505H79.0945V4.6405H79.6275V1.6505ZM75.4935 3.1585C75.4935 2.6515 75.916 2.294 76.4815 2.294C77.0535 2.294 77.4695 2.6515 77.4695 3.1585C77.4695 3.659 77.0535 4.0165 76.4815 4.0165C75.916 4.0165 75.4935 3.659 75.4935 3.1585ZM77.9895 3.1585C77.9895 2.385 77.3525 1.8585 76.4815 1.8585C75.6105 1.8585 74.98 2.385 74.98 3.1585C74.98 3.9255 75.6105 4.4455 76.4815 4.4455C77.3525 4.4455 77.9895 3.9255 77.9895 3.1585ZM76.3905 6.9805V6.337H79.6275V4.9265H75.851V5.349H79.101V5.9405H75.864V7.403H79.8225V6.9805H76.3905ZM83.9953 5.6935C83.4363 5.6935 83.0463 5.0825 83.0463 4.1335C83.0463 3.191 83.4363 2.58 83.9953 2.58C84.5478 2.58 84.9378 3.191 84.9378 4.1335C84.9378 5.0825 84.5478 5.6935 83.9953 5.6935ZM86.7058 1.6505V3.8735H85.4383C85.3538 2.7815 84.7818 2.099 83.9953 2.099C83.1438 2.099 82.5393 2.892 82.5393 4.1335C82.5393 5.375 83.1438 6.168 83.9953 6.168C84.8078 6.168 85.3863 5.453 85.4383 4.309H86.7058V7.494H87.2388V1.6505H86.7058ZM93.1923 1.657H92.6593V5.947H93.1923V1.657ZM91.9638 4.491C91.0668 4.647 90.3063 4.686 89.2403 4.686V3.75H91.3528V2.0665H88.7008V2.4955H90.8263V3.347H88.7203V5.1215H89.1883C90.3063 5.1215 91.0863 5.0825 92.0158 4.9265L91.9638 4.491ZM89.9228 6.9155V5.6155H89.3898V7.351H93.3548V6.9155H89.9228ZM98.6323 1.6505V7.494H99.1653V1.6505H98.6323ZM96.0908 2.099C95.2263 2.099 94.6088 2.892 94.6088 4.1335C94.6088 5.375 95.2263 6.168 96.0908 6.168C96.9553 6.168 97.5728 5.375 97.5728 4.1335C97.5728 2.892 96.9553 2.099 96.0908 2.099ZM96.0908 2.58C96.6563 2.58 97.0593 3.191 97.0593 4.1335C97.0593 5.0825 96.6563 5.6935 96.0908 5.6935C95.5188 5.6935 95.1158 5.0825 95.1158 4.1335C95.1158 3.191 95.5188 2.58 96.0908 2.58ZM103.76 3.607C102.837 3.7955 102.005 3.8605 101.186 3.867V1.904H100.66V4.309H101.115C101.986 4.309 102.85 4.2505 103.832 4.0555L103.76 3.607ZM101.739 6.3045H104.898V4.868H101.193V5.297H104.371V5.895H101.212V7.403H105.112V6.974H101.739V6.3045ZM104.898 2.8595V1.6505H104.365V4.5885H104.898V3.3015H105.762V2.8595H104.898ZM110.696 4.2895C110.085 4.413 109.565 4.4455 108.733 4.4455V3.6525H110.403V3.243H108.733V2.5085H110.468V2.0795H108.219V4.881H108.59C109.526 4.881 110.078 4.855 110.748 4.7185L110.696 4.2895ZM108.967 5.921H112.353V7.481H112.886V5.492H108.967V5.921ZM112.373 1.657V3.1715H111.593V1.761H111.086V5.1475H111.593V3.607H112.373V5.1865H112.886V1.657H112.373ZM115.882 5.5895H114.66V4.049H115.882V5.5895ZM115.882 3.6265H114.66V2.203H114.153V6.0185H116.383V2.203H115.882V3.6265ZM118.391 1.6505V3.958H117.605V1.7805H117.104V7.195H117.605V4.3935H118.391V7.481H118.898V1.6505H118.391ZM121.881 2.1575H121.355V3.204C121.355 4.2635 120.692 5.3815 119.853 5.8105L120.172 6.2395C120.828 5.8885 121.368 5.1605 121.621 4.309C121.888 5.1085 122.414 5.791 123.032 6.1225L123.363 5.7C122.544 5.2905 121.881 4.231 121.881 3.204V2.1575ZM125.372 4.0165H124.41V1.657H123.877V7.481H124.41V4.4585H125.372V4.0165ZM132.476 2.294H130.422V1.618H129.882V2.294H127.789V2.723H132.476V2.294ZM131.488 4.0165C131.488 4.374 131 4.5755 130.155 4.5755C129.304 4.5755 128.81 4.374 128.81 4.0165C128.81 3.6655 129.304 3.4575 130.155 3.4575C131 3.4575 131.488 3.6655 131.488 4.0165ZM128.257 4.0165C128.257 4.6405 128.966 4.985 130.155 4.985C131.332 4.985 132.04 4.6405 132.04 4.0165C132.04 3.399 131.332 3.0545 130.155 3.0545C128.966 3.0545 128.257 3.399 128.257 4.0165ZM132.801 5.3815H127.516V5.8105H128.888V7.4875H129.421V5.8105H130.89V7.4875H131.423V5.8105H132.801V5.3815ZM137.578 3.8215H134.685V2.4045H137.578V3.8215ZM138.104 1.9755H134.165V4.244H138.104V1.9755ZM138.78 5.037H133.489V5.466H135.855V7.4745H136.388V5.466H138.78V5.037ZM142.381 6.324V5.2255H144.246V4.7965H140.658V3.854H144.11V2.0795H140.119V2.515H143.59V3.425H140.132V5.2255H141.841V6.324H139.469V6.7595H144.766V6.324H142.381ZM151.851 1.657H151.318V5.9145H151.851V1.657ZM147.724 3.49C147.724 2.9245 148.153 2.5215 148.718 2.5215C149.297 2.5215 149.726 2.9245 149.726 3.49C149.726 4.0685 149.297 4.4715 148.718 4.4715C148.153 4.4715 147.724 4.0685 147.724 3.49ZM150.246 3.49C150.246 2.6515 149.589 2.06 148.718 2.06C147.854 2.06 147.204 2.6515 147.204 3.49C147.204 4.335 147.854 4.933 148.718 4.933C149.589 4.933 150.246 4.335 150.246 3.49ZM148.634 6.9155V5.479H148.101V7.351H152.027V6.9155H148.634ZM154.49 5.687C154.035 5.687 153.716 5.3165 153.716 4.7965C153.716 4.2895 154.035 3.919 154.49 3.919C154.938 3.919 155.263 4.2895 155.263 4.7965C155.263 5.3165 154.938 5.687 154.49 5.687ZM154.49 3.4705C153.768 3.4705 153.242 4.0165 153.242 4.7965C153.242 5.5895 153.768 6.129 154.49 6.129C155.211 6.129 155.738 5.5895 155.738 4.7965C155.738 4.0165 155.211 3.4705 154.49 3.4705ZM154.75 1.8195H154.223V2.645H153.04V3.0805H155.933V2.645H154.75V1.8195ZM157.473 1.644V4.1075H156.726V1.7805H156.225V7.195H156.726V4.543H157.473V7.4745H157.987V1.644H157.473ZM165.422 1.6505H164.889V4.6405H165.422V1.6505ZM161.288 3.1585C161.288 2.6515 161.711 2.294 162.276 2.294C162.848 2.294 163.264 2.6515 163.264 3.1585C163.264 3.659 162.848 4.0165 162.276 4.0165C161.711 4.0165 161.288 3.659 161.288 3.1585ZM163.784 3.1585C163.784 2.385 163.147 1.8585 162.276 1.8585C161.405 1.8585 160.775 2.385 160.775 3.1585C160.775 3.9255 161.405 4.4455 162.276 4.4455C163.147 4.4455 163.784 3.9255 163.784 3.1585ZM162.185 6.9805V6.337H165.422V4.9265H161.646V5.349H164.896V5.9405H161.659V7.403H165.617V6.9805H162.185ZM169.036 4.53H167.385V3.464H169.036V4.53ZM169.556 2.073H169.036V3.048H167.385V2.073H166.858V4.959H169.556V2.073ZM168.048 5.5245H167.515V7.351H171.402V6.9155H168.048V5.5245ZM171.142 3.4185V1.657H170.609V5.934H171.142V3.867H172V3.4185H171.142ZM174.534 5.5895H173.312V4.049H174.534V5.5895ZM174.534 3.6265H173.312V2.203H172.805V6.0185H175.035V2.203H174.534V3.6265ZM177.043 1.6505V3.958H176.257V1.7805H175.756V7.195H176.257V4.3935H177.043V7.481H177.55V1.6505H177.043ZM183.53 3.568C182.49 3.425 181.482 2.775 181.482 2.0015V1.7415H180.936V2.0015C180.936 2.775 179.935 3.425 178.895 3.568L179.097 3.9905C179.987 3.841 180.845 3.3795 181.209 2.7165C181.58 3.3795 182.438 3.841 183.328 3.9905L183.53 3.568ZM181.209 7.065C180.286 7.065 179.753 6.8505 179.753 6.467C179.753 6.0835 180.286 5.869 181.209 5.869C182.132 5.869 182.665 6.0835 182.665 6.467C182.665 6.8505 182.132 7.065 181.209 7.065ZM181.209 5.4595C179.961 5.4595 179.214 5.817 179.214 6.467C179.214 7.117 179.961 7.4745 181.209 7.4745C182.457 7.4745 183.205 7.117 183.205 6.467C183.205 5.817 182.457 5.4595 181.209 5.4595ZM181.476 4.543V3.685H180.943V4.543H178.577V4.972H183.848V4.543H181.476ZM188.794 1.6505V7.494H189.327V1.6505H188.794ZM186.253 2.099C185.388 2.099 184.771 2.892 184.771 4.1335C184.771 5.375 185.388 6.168 186.253 6.168C187.117 6.168 187.735 5.375 187.735 4.1335C187.735 2.892 187.117 2.099 186.253 2.099ZM186.253 2.58C186.818 2.58 187.221 3.191 187.221 4.1335C187.221 5.0825 186.818 5.6935 186.253 5.6935C185.681 5.6935 185.278 5.0825 185.278 4.1335C185.278 3.191 185.681 2.58 186.253 2.58ZM192.636 4.0295C193.591 3.9125 194.469 3.4835 194.787 2.84C195.112 3.4835 195.983 3.9125 196.939 4.0295L197.127 3.607C196.107 3.49 195.177 2.9895 195.132 2.346H196.945V1.917H192.636V2.346H194.443C194.397 2.9895 193.468 3.49 192.447 3.607L192.636 4.0295ZM196.237 6.4475C196.237 6.8375 195.691 7.065 194.781 7.065C193.864 7.065 193.325 6.8375 193.325 6.4475C193.325 6.0575 193.864 5.8365 194.781 5.8365C195.691 5.8365 196.237 6.0575 196.237 6.4475ZM197.42 4.8095V4.3805H192.148V4.8095H194.514V5.4335C193.429 5.4855 192.785 5.843 192.785 6.4475C192.785 7.1105 193.539 7.4745 194.787 7.4745C196.029 7.4745 196.776 7.1105 196.776 6.4475C196.776 5.843 196.139 5.4855 195.054 5.4335V4.8095H197.42ZM201.501 4.205C200.741 4.3545 200.078 4.4 198.927 4.4V2.5865H200.975V2.1575H198.394V4.8355H198.849C200.071 4.8355 200.76 4.7965 201.56 4.634L201.501 4.205ZM199.558 5.4465H199.025V7.351H202.912V6.9155H199.558V5.4465ZM202.652 3.3795V1.6505H202.119V5.869H202.652V3.8215H203.516V3.3795H202.652ZM207.884 4.244C207.377 4.322 206.844 4.361 206.304 4.3935V3.789H207.455V3.3535H205.18V2.3785H207.396V1.943H204.653V3.789H205.771V4.413C205.186 4.439 204.614 4.439 204.127 4.439L204.205 4.868C205.251 4.8615 206.649 4.842 207.916 4.6275L207.884 4.244ZM208.365 6.974H205.602V6.298H208.365V6.974ZM208.365 5.882H205.602V5.271H205.069V7.403H208.891V5.271H208.365V5.882ZM208.358 1.657V5.011H208.891V1.657H208.358ZM210.984 2.216H210.451V5.973H210.932C211.861 5.973 212.778 5.908 213.792 5.7L213.733 5.245C212.765 5.44 211.861 5.518 210.984 5.518V2.216ZM214.331 1.6505V7.4745H214.864V1.6505H214.331ZM216.846 2.6515H219.024V2.2095H216.313V6.038H216.775C217.873 6.038 218.64 5.999 219.531 5.83L219.472 5.388C218.627 5.5375 217.88 5.583 216.846 5.583V2.6515ZM221.513 3.9515H220.551V1.6505H220.018V7.494H220.551V4.3935H221.513V3.9515ZM222.158 6.68896C222.158 6.58952 222.189 6.50594 222.25 6.43823C222.314 6.36841 222.405 6.3335 222.523 6.3335C222.642 6.3335 222.732 6.36841 222.793 6.43823C222.856 6.50594 222.888 6.58952 222.888 6.68896C222.888 6.7863 222.856 6.86882 222.793 6.93652C222.732 7.00423 222.642 7.03809 222.523 7.03809C222.405 7.03809 222.314 7.00423 222.25 6.93652C222.189 6.86882 222.158 6.7863 222.158 6.68896Z" fill="#9A1111"/>
</svg>
