<svg width="34" height="20" viewBox="0 0 34 20" fill="none" xmlns="http://www.w3.org/2000/svg">
<rect width="34" height="20" rx="2" fill="#9A1111"/>
<path d="M15 9.336C15.312 8.196 15.312 7.26 15.312 6.384V5.472H7.656V6.72H13.728C13.728 7.452 13.692 8.196 13.44 9.18L15 9.336ZM11.448 14.844C9.96 14.844 9.108 14.544 9.108 13.956C9.108 13.356 9.96 13.056 11.448 13.056C12.948 13.056 13.8 13.356 13.8 13.956C13.8 14.544 12.948 14.844 11.448 14.844ZM11.448 11.868C9.072 11.868 7.536 12.66 7.536 13.956C7.536 15.24 9.072 16.032 11.448 16.032C13.836 16.032 15.372 15.24 15.372 13.956C15.372 12.66 13.836 11.868 11.448 11.868ZM11.808 9.924V7.992H10.224V9.924H6.54V11.172H16.488V9.924H11.808ZM23.0271 7.344H25.3071V6.036H19.1151V7.344H21.4191V7.956C21.4191 9.84 20.5191 11.868 18.6711 12.696L19.5711 13.956C20.8671 13.368 21.7551 12.156 22.2471 10.716C22.7391 12.048 23.6151 13.128 24.8991 13.68L25.7631 12.432C23.9151 11.664 23.0271 9.756 23.0271 7.956V7.344ZM26.3271 4.98V16.032H27.9111V4.98H26.3271Z" fill="white"/>
</svg>
