<svg id="로고전체" xmlns="http://www.w3.org/2000/svg" viewBox="0 0 500 500"><defs><style>.cls-1,.cls-2,.cls-5,.cls-6{fill:#26331c;}.cls-2,.cls-3,.cls-5,.cls-6{stroke:#26331c;}.cls-2,.cls-3,.cls-4,.cls-5,.cls-6{stroke-miterlimit:10;}.cls-2{stroke-width:3.39px;}.cls-3,.cls-4{fill:none;}.cls-3{stroke-width:5.77px;}.cls-4{stroke:#fff;stroke-width:1.02px;}.cls-5{stroke-width:2.38px;}.cls-6{stroke-width:2.04px;}</style></defs><path class="cls-1" d="M167.19,390.35v5.37h3.44v2.09h-3.44v5.52H159s-.16.74-.47,2.11a8.8,8.8,0,0,1-2,3.83,10.23,10.23,0,0,1-4.18,3.21l-2.06.7L148.1,411l2.28-.45a7.31,7.31,0,0,0,4.07-2.67,7.51,7.51,0,0,0,1.66-3c.21-1,.32-1.47.32-1.52H150.3v-2.12h6.43l0-3.4h-9.83v-2.09h9.83v-3.31h-6.25v-2.06Zm-7.91,10.86h5.43v-3.4h-5.37Zm.06-5.49h5.37v-3.31h-5.37Z"/><path class="cls-1" d="M246.27,396.92H236.12v-1.49c-.18.12-.91.54-2.19,1.24a25.84,25.84,0,0,1-3.78,1.74l-1.63-2a30.6,30.6,0,0,0,5.77-2.44,15.56,15.56,0,0,0,6.17-5.32l2.23,1a3.08,3.08,0,0,0-.23.34,3.23,3.23,0,0,1-.31.42,23.13,23.13,0,0,0,8.18,4.48l3.68.92c0,.06-.28.44-.75,1.14l-.77,1.2s-.75-.23-2.13-.69a21.17,21.17,0,0,1-4.09-1.89Zm-3.85,14.5-11.32,1.43-.66-2.11,3.83-.35v-12.3h13.85v7.49h-6.57l1.07,1.17a6.89,6.89,0,0,0,1.54,1.19l5.7-3.39,1.52,1.68c-.13.07-1,.54-2.77,1.38s-2.63,1.32-2.74,1.39l.65.3a18.55,18.55,0,0,0,2.25.73,17.86,17.86,0,0,0,3.39.63l1.58.11c-.05.07-.22.34-.49.82s-.58,1-.92,1.51l-2.16-.39a20.27,20.27,0,0,1-4.06-1.21,13.92,13.92,0,0,1-2.48-1.3l-.89-.63Zm3-16.38a14.89,14.89,0,0,1-3-1.92l-1.76-1.41A29.06,29.06,0,0,1,238,394c-.83.62-1.28.95-1.37,1ZM236.72,401h9v-1.08h-9Zm0,2.83h9V402.7h-9Zm0,1.79v4.53l2.9-.32q2.77-.33,2.88-.36l-1.13-1.11a20.79,20.79,0,0,1-2.24-2.74Z"/><path class="cls-1" d="M328.62,397.65v9.12h-7.3v1.82h10.21v2H321.29v2.42h-2.36V410.6H308.75v-2h10.18v-1.82l-7.22,0v-9.15Zm-9.56-7.38v6h-8.44v-6Zm-6.13,1.92v2.18h3.83v-2.18ZM314,399.5v1.79h4.86V399.5Zm0,3.61v1.82h4.89v-1.82Zm15.59-12.84v6h-8.39v-6Zm-8.31,9.23v1.79h4.91V399.5Zm0,3.61v1.82h4.91v-1.82Zm2.25-10.92v2.12h3.88v-2.12Z"/><path class="cls-2" d="M164.86,179.14c-3.15,5.7-3,24.32-2.74,31.92,6.24-12.43,14.1-18.92,31.88-13.42.25.08,5,1.32,5.19,1.5,11.63-5.23,18.75-3.13,21-2.49,1.35.38,6.3,3.49,6.79,4.43,6.15-3.76,11.07-4.34,17.18-2.05a10.79,10.79,0,0,1,1.63,1,14.33,14.33,0,0,1,8.78-2.66,56.82,56.82,0,0,1,6.76,1,9.93,9.93,0,0,1,7.29-.58,62.64,62.64,0,0,1,8.77-.26,5.92,5.92,0,0,1,2.51.63,3.36,3.36,0,0,1,2.68,3.15,6.06,6.06,0,0,1,.16.61l17.38-21.69C265.73,179.88,164.86,179.14,164.86,179.14Z"/><path class="cls-3" d="M180.71,241.45c-5.56-7.46-3.45-18.81-.44-24.6a41,41,0,0,1,23-20.32c-8.62-3.24-30.68-4.86-40.79,15.11a39.45,39.45,0,0,0,1.19,8.65s.55,2.13,2.51,7.65a65.13,65.13,0,0,0,7.77,14.77h8.16l.3-.46A3.19,3.19,0,0,1,180.71,241.45Z"/><path class="cls-3" d="M284.58,200.44s-9.9-6-19.57-.84c0,0-7.31-5.14-17,0,0,0-11.34-3.91-15,3.3,0,0-9.77,1.56-9.34,9,0,0-12.07,0-12,9.93,0,0-11.57.22-10.47,8.64,0,0-13.79.76-12.14,12.26h61.51Z"/><path class="cls-3" d="M300.14,181.62c0-1.37,0,.08,0,0h0l-24.3,30-26.32,31.08.74,36c.24.08.48.13.71.22,14.57-16.86,32.54-36.54,46-53.94,4.29-5.55,3-10.07,3.07-17.07C300.05,193.72,300.13,181.69,300.14,181.62Z"/><path class="cls-3" d="M249.83,279.56s-55.56-.55-75.4-36.85h43"/><path class="cls-1" d="M361.35,304.57a7,7,0,0,1-7,7h0a7,7,0,0,1-7-7v-7.25a7,7,0,0,1,7-7h0a7,7,0,0,1,7,7Z"/><path class="cls-4" d="M353.73,295.38v8.24s.07,5.74-4.17,6.71"/><polyline class="cls-4" points="349.56 302.92 357.91 302.92 357.91 295.38 349.56 295.38"/><line class="cls-4" x1="347.32" y1="299.15" x2="361.95" y2="299.15"/><path class="cls-3" d="M162.47,212.53s-17.26-106.77,97-106.77"/><path class="cls-5" d="M154.43,339.42l-.3,4.72c0,4.76.07,7.32-1.13,7.32-.46,0-1-2.19-1-6l-.34-5.56c-2.28.11-4.81-.11-6.34.09-.52.07-1.08.17-1.68.28a10.82,10.82,0,0,0-1.49.39,4.73,4.73,0,0,1-2.48.05,22.28,22.28,0,0,1-5.85-2.19.41.41,0,0,1-.25-.46c0-.2.23-.29.59-.25a63.55,63.55,0,0,0,8.63.66l21.45-.36a13.8,13.8,0,0,0,4.83-1.12,2.71,2.71,0,0,1,1-.15,24,24,0,0,1,5,.3c1.27.24,1.9.7,1.9,1.38s-.57,1-1.71,1L164,339.39h-.05v4.89c0,4.78-.6,7.18-1.8,7.18q-.73,0-.74-5.75v-6.32C158.48,339.36,156.74,339.35,154.43,339.42Z"/><path class="cls-5" d="M239.33,337.35q-5.51-4.82-9.32-8a47.38,47.38,0,0,1-5.09,5.35,32.72,32.72,0,0,1-6.06,4.46c-1.46.79-2.31,1.09-2.57.89s-.06-.49.59-.89a38.15,38.15,0,0,0,8.07-7,32,32,0,0,0,6.33-10q.57-1.58.21-2.13a3.16,3.16,0,0,0-.77-.84,8.77,8.77,0,0,0-1.57-1c-.79-.36-1.11-.71-1-1s.66-.35,1.58-.05a20.55,20.55,0,0,1,5,2.33c.64.43.88.81.71,1.14l-.82,1.63a32.69,32.69,0,0,1-1.65,3,32.3,32.3,0,0,1-2.11,3l3.61,2.72a7.75,7.75,0,0,0,3.36,1.54,2,2,0,0,1,.82.45,11.87,11.87,0,0,1,2.44,2.82c.75,1.13.9,1.9.46,2.33S240.38,338.27,239.33,337.35Z"/><path class="cls-5" d="M252.16,318.72v13.47q0,8.54-1.89,8.53-.77,0-.76-5.75V318.66a4.57,4.57,0,0,0-.31-1.78,3.17,3.17,0,0,0-1.73-1.39c-.47-.19-1.11-.43-1.91-.69s-1.19-.53-1.19-.79.34-.53,1-.5a32.74,32.74,0,0,1,3.34.42,18.57,18.57,0,0,1,3.13.82q.81.3.66.84c-.07.27-.15.63-.25,1.09A13.09,13.09,0,0,0,252.16,318.72Z"/><path class="cls-5" d="M307.33,338.65a4.81,4.81,0,0,1-2.65-.56c-.53-.37-.8-1.23-.8-2.56V324.08a1.73,1.73,0,0,0-1.19-1.79,14.47,14.47,0,0,0-2.51-.68,1.94,1.94,0,0,1-.78-.28q-.37-.27,0-.51a7.15,7.15,0,0,1,2.44-.3c1.36,0,14-.43,15.68-.21,1.07.12,2.55.34,2.55.89s-1.5.88-2.6.88l-11,.14V335a1.41,1.41,0,0,0,.56,1.24,2.34,2.34,0,0,0,1.38.39,45.94,45.94,0,0,0,10.41-1.51,77.56,77.56,0,0,0,10.37-3.15l.09,0V318.35a4.2,4.2,0,0,0-.29-1.67,3,3,0,0,0-1.65-1.31c-.46-.18-1.07-.4-1.83-.65s-1.14-.5-1.14-.74.32-.5,1-.47a29.53,29.53,0,0,1,3.19.4,16.39,16.39,0,0,1,3,.77c.52.18.73.44.63.79s-.14.58-.24,1a11.49,11.49,0,0,0-.1,1.91v11.36h.63a6.43,6.43,0,0,0,3.31-1.12,1.82,1.82,0,0,1,.83-.14,25.29,25.29,0,0,1,3.6.19c1.07.12,1.6.51,1.6,1.16s-.53.84-1.6.84H331.8v8.61q0,8-1.8,8c-.48,0-.73-1.8-.73-5.4v-9.27a67.9,67.9,0,0,1-11.82,4.24A39.73,39.73,0,0,1,307.33,338.65Z"/><path class="cls-1" d="M244.68,345.46a70.15,70.15,0,0,1-16.7,1.11s-9.1-1.35-2.34,3.44c0,0,5.53,3.39,8.2.81L244,349.64s4-1.2,4,1.38c0,0,.1,7.18.5,10.66a25.28,25.28,0,0,0,0,3.81s2.77,0,4-11.36l.48-2.77s.22-1.28.34-3.25C253.28,348.11,253.28,342.87,244.68,345.46Z"/><path class="cls-6" d="M143.42,352a2.11,2.11,0,0,0-1.17-2.2,5.12,5.12,0,0,0-1.69-.6c-.35-.07-1.31.07-1.51-.39-.26-.64.43-.8.64-.94.38-.24.42,0,2,0a12.34,12.34,0,0,1,3.66.39c.45.14,1.1.51,1.09.89,0,1.14-.55,1.15-.59,1.62s0,1,0,2.07l.33,5.61c0,1.21.82,1.82,2.45,1.82l10.55-.1a7.05,7.05,0,0,0,3.28-1,2.13,2.13,0,0,1,.83-.21,21.55,21.55,0,0,1,4.68.1q1.71.21,1.71,1.35c0,.63-.59.94-1.77.94l-19.83,1.34c-3.06,0-4.56-1.31-4.56-3.53Z"/><path class="cls-6" d="M309,350.39a2.13,2.13,0,0,0-1.17-2.21,14.29,14.29,0,0,0-2.73-.81,1.89,1.89,0,0,1-.78-.31c-.2-.17-.2-.33,0-.47a7.22,7.22,0,0,1,3-.34,16.73,16.73,0,0,1,4.29.55c.45.14.61.38.47.73a3.92,3.92,0,0,0-.26,1.22c0,.47-.05,1.26-.05,2.36v5.72c0,1.22.81,1.83,2.44,1.83l10.55-.11a7,7,0,0,0,3.28-1,2.7,2.7,0,0,1,.83-.21,21.63,21.63,0,0,1,4.68.11c1.15.14,1.72.59,1.72,1.35s-.59.93-1.77.93L313.66,361c-3.05,0-4.55-1.31-4.55-3.52Z"/><path class="cls-1" d="M156.54,313a10.07,10.07,0,1,0,10.08,10.07A10.07,10.07,0,0,0,156.54,313Zm0,15.86a5.79,5.79,0,1,1,5.78-5.79A5.79,5.79,0,0,1,156.55,328.9Z"/><path class="cls-1" d="M153,313.68s2-1.14,5.55-3.1c0,0,1.86-1.44,3-.83,0,0,2.6,1.36-.85,4.22"/><path class="cls-1" d="M250.08,131.45s-19.63,1.91-25-4-2.59-13.54-2.59-13.54,7.89-1.81,13.27,4.13A180.94,180.94,0,0,0,250.08,131.45Z"/><path class="cls-1" d="M220,147.36s-19.63,1.91-25-4-2.59-13.55-2.59-13.55,7.89-1.8,13.27,4.14A183,183,0,0,0,220,147.36Z"/><path class="cls-1" d="M291.79,113.37s-20.1,8.56-27.77,4.09S256.76,104,256.76,104s7.73-4.54,15.4-.06A201.59,201.59,0,0,0,291.79,113.37Z"/></svg>