<svg xmlns="http://www.w3.org/2000/svg" viewBox="0 0 500 500"><defs><style>.cls-1,.cls-3{fill:#26331c;}.cls-1,.cls-2{stroke:#26331c;stroke-miterlimit:10;}.cls-1{stroke-width:2.17px;}.cls-2{fill:none;stroke-width:3.69px;}</style></defs><g id="로고"><g id="로고-2" data-name="로고"><path class="cls-1" d="M207.8,259c-2,3.64-1.91,15.55-1.75,20.41,4-7.95,9-12.1,20.38-8.58.16.05,3.22.84,3.32,1,7.44-3.35,12-2,13.46-1.59a14.9,14.9,0,0,1,4.33,2.83c3.94-2.41,7.08-2.78,11-1.31a7.19,7.19,0,0,1,1,.63,9.18,9.18,0,0,1,5.62-1.69,36.87,36.87,0,0,1,4.32.64,6.39,6.39,0,0,1,4.66-.36,40.5,40.5,0,0,1,5.61-.17,3.82,3.82,0,0,1,1.61.4,2.15,2.15,0,0,1,1.71,2c0,.12.07.26.11.39l11.11-13.87C272.31,259.51,207.8,259,207.8,259Z"/><path class="cls-2" d="M217.94,298.89c-3.56-4.77-2.21-12-.28-15.74a26.17,26.17,0,0,1,14.69-13c-5.51-2.08-19.61-3.11-26.08,9.66a25.37,25.37,0,0,0,.77,5.53s.34,1.36,1.59,4.9a41.61,41.61,0,0,0,5,9.44h5.22l.18-.29A2,2,0,0,1,217.94,298.89Z"/><path class="cls-2" d="M284.36,272.66s-6.33-3.82-12.51-.54c0,0-4.68-3.28-10.86,0,0,0-7.25-2.5-9.6,2.11,0,0-6.24,1-6,5.75,0,0-7.71,0-7.69,6.35,0,0-7.39.14-6.69,5.53,0,0-8.82.48-7.77,7.83h39.34Z"/><path class="cls-2" d="M294.31,260.62c0-.87,0,.05,0,0h0l-15.54,19.2-16.83,19.87.48,23c.15,0,.3.08.45.14,9.31-10.78,20.81-23.36,29.41-34.49,2.74-3.55,1.94-6.44,2-10.92C294.25,268.36,294.31,260.67,294.31,260.62Z"/><path class="cls-2" d="M262.14,323.25s-35.53-.34-48.22-23.56h27.53"/><path class="cls-2" d="M206.27,280.39s-11-68.28,62-68.28"/><path class="cls-3" d="M262.3,228.54s-12.55,1.22-16-2.58-1.65-8.66-1.65-8.66,5-1.16,8.49,2.64A114.89,114.89,0,0,0,262.3,228.54Z"/><path class="cls-3" d="M243,238.71s-12.55,1.22-16-2.57-1.65-8.67-1.65-8.67,5-1.15,8.48,2.65A117.26,117.26,0,0,0,243,238.71Z"/><path class="cls-3" d="M289,217s-12.86,5.48-17.76,2.62-4.65-8.6-4.65-8.6,4.95-2.9,9.85,0A128.48,128.48,0,0,0,289,217Z"/></g></g></svg>