<svg xmlns="http://www.w3.org/2000/svg" viewBox="0 0 500 500"><defs><style>.cls-1,.cls-3{fill:none;stroke-miterlimit:10;}.cls-1{stroke:#e6e6e6;stroke-width:1.92px;}.cls-2{fill:#e6e6e6;}.cls-3{stroke:#fff;stroke-width:4px;}.cls-4{font-size:18px;letter-spacing:0.05em;}.cls-4,.cls-5,.cls-6{fill:#fff;}.cls-4,.cls-6{font-family:NotoSansKR-Medium-KSCpc-EUC-H, Noto Sans KR;}.cls-6{font-size:7.7px;letter-spacing:0.01em;}</style></defs><g id="식단한팩구성"><rect class="cls-1" x="182.31" y="155.8" width="143.4" height="188.4" rx="66.25"/><path class="cls-2" d="M244.07,166.31h19.16a52.19,52.19,0,0,1,52.19,52.19v0a0,0,0,0,1,0,0H191.88a0,0,0,0,1,0,0v0a52.19,52.19,0,0,1,52.19-52.19Z"/><rect class="cls-2" x="191.88" y="223.78" width="123.54" height="53.32"/><path class="cls-2" d="M192.49,282.39H314.82a0,0,0,0,1,0,0v0a51.68,51.68,0,0,1-51.68,51.68h-19a51.68,51.68,0,0,1-51.68-51.68v0A0,0,0,0,1,192.49,282.39Z"/><line class="cls-3" x1="231.04" y1="282.39" x2="231.04" y2="334.07"/><line class="cls-3" x1="276.53" y1="282.39" x2="276.53" y2="334.07"/><text class="cls-4" transform="translate(220.09 202.02)">탄수화물</text><text class="cls-4" transform="translate(229.33 257.1)">단백질</text><path class="cls-5" d="M243.39,288.57a5.13,5.13,0,0,1-3.34,5l-.44-.63a4.42,4.42,0,0,0,2.94-3.71H240v-.65Zm2.13-.73v7h-.82v-7Z"/><path class="cls-5" d="M253.54,291.59v.64H247v-.64h2.85v-.67h-2v-2.81h.82v.79h3.21v-.79h.82v2.81h-2v.67ZM248.65,294h4.15v.65h-5v-1.95h.83Zm0-3.74h3.21v-.77h-3.21Z"/><path class="cls-5" d="M261,293.33V294h-6.54v-.65h2.85V292h-2v-3.65h4.94V289h-4.1v.84H260v.63h-3.94v.91h4.17V292h-2.14v1.31Z"/><path class="cls-5" d="M266.45,291.4a27.12,27.12,0,0,1-4.35.28L262,291h.85v-2h-.65v-.65h3.87v.65h-.64v1.87l1-.1Zm1.43,2.11c0,.81-.93,1.29-2.44,1.29s-2.44-.48-2.44-1.29.92-1.29,2.44-1.29S267.88,292.69,267.88,293.51Zm-4.24-2.5,1,0v-1.92h-1Zm3.42,2.5c0-.44-.59-.68-1.62-.68s-1.63.24-1.63.68.59.67,1.63.67S267.06,293.94,267.06,293.51Zm.77-1.43H267v-4.23h.82Z"/><path class="cls-5" d="M243.22,302.16h-3.33v-3.3h.82v1h1.7v-1h.81v.65h1.5v-1.08h.82v4.2h-.82v-1h-1.5Zm-.81-1.65h-1.7v1h1.7Zm3.17,3.56c0,.84-.93,1.32-2.44,1.32s-2.43-.48-2.43-1.32.92-1.31,2.43-1.31S245.58,303.25,245.58,304.07Zm-.83,0c0-.45-.59-.7-1.61-.7s-1.61.25-1.61.7.58.71,1.61.71S244.75,304.53,244.75,304.07Zm-1.53-3.91v.78h1.5v-.78Z"/><path class="cls-5" d="M250.78,301.4c0,1.5-.78,2.45-1.86,2.45s-1.85-1-1.85-2.45.77-2.46,1.85-2.46S250.78,299.9,250.78,301.4Zm-.79,0c0-1.09-.44-1.74-1.07-1.74s-1.06.65-1.06,1.74.43,1.74,1.06,1.74S250,302.49,250,301.4Zm3.73.41h-1.13v3.59h-.82v-7h.82v2.72h1.13Z"/><path class="cls-5" d="M255.68,303.1a22.66,22.66,0,0,0,3.29-.24l.09.64a20.44,20.44,0,0,1-3.59.25h-.62V301h2.52V299.7h-2.53v-.65h3.36v2.58h-2.52Zm4.72-4.68v7h-.83v-7Z"/><path class="cls-5" d="M268.4,301.82v.64h-6.51v-.64h2.55v-.9h.83v.9Zm-1.6-1.95c0-.2,0-.39,0-.57h-4.17v-.63h5v.56a10.4,10.4,0,0,1-.18,2.19l-.83-.06a5.27,5.27,0,0,0,.13-.9l-4.2.19-.1-.66Zm.82,4.29c0,.78-.93,1.23-2.48,1.23s-2.5-.45-2.5-1.23.94-1.23,2.5-1.23S267.62,303.37,267.62,304.16Zm-.83,0c0-.41-.6-.62-1.65-.62s-1.66.21-1.66.62.6.62,1.66.62S266.79,304.57,266.79,304.16Z"/><path class="cls-5" d="M200.2,288.57a5.13,5.13,0,0,1-3.34,5l-.44-.63a4.41,4.41,0,0,0,2.93-3.71h-2.57v-.65Zm2.13-.73v7h-.83v-7Z"/><path class="cls-5" d="M210.34,291.59v.64h-6.55v-.64h2.86v-.67h-2v-2.81h.82v.79h3.21v-.79h.82v2.81h-2v.67ZM205.46,294h4.15v.65h-5v-1.95h.83Zm0-3.74h3.21v-.77h-3.21Z"/><path class="cls-5" d="M217.79,293.33V294h-6.54v-.65h2.85V292h-2v-3.65H217V289h-4.1v.84h3.94v.63H212.9v.91h4.16V292h-2.13v1.31Z"/><path class="cls-5" d="M223.26,291.4a27.26,27.26,0,0,1-4.35.28l-.1-.66h.85v-2H219v-.65h3.88v.65h-.64v1.87l1-.1Zm1.43,2.11c0,.81-.93,1.29-2.44,1.29s-2.45-.48-2.45-1.29.92-1.29,2.45-1.29S224.69,292.69,224.69,293.51Zm-4.24-2.5,1,0v-1.92h-1Zm3.41,2.5c0-.44-.58-.68-1.61-.68s-1.63.24-1.63.68.59.67,1.63.67S223.86,293.94,223.86,293.51Zm.78-1.43h-.82v-4.23h.82Z"/><path class="cls-5" d="M215.48,301.82a16,16,0,0,1-3.37.24h-.58v-3.13h3.22v.65h-2.4v1.83a14.71,14.71,0,0,0,3-.23ZM217,304c0,.86-.93,1.38-2.41,1.38s-2.41-.52-2.41-1.38.93-1.36,2.41-1.36S217,303.17,217,304Zm-.82,0c0-.47-.59-.72-1.59-.72s-1.59.25-1.59.72.59.73,1.59.73S216.15,304.49,216.15,304Zm1.76-3.85v.65h-1v1.7h-.84v-4.09h.84v1.74Z"/><path class="cls-5" d="M225.23,301.58v.65h-6.55v-.65h4.74a9.68,9.68,0,0,0,.19-2.11h-4.1v-.64h4.91v.57a10.86,10.86,0,0,1-.17,2.18Zm-4.88,3h4.28v.64h-5.1v-2.33h.82Z"/><text class="cls-6" transform="translate(281.68 294.21) scale(1.04 1)">기본토핑<tspan x="0" y="10.59">과일</tspan></text></g></svg>